<svg width="64" height="22" viewBox="0 0 64 22" fill="none" xmlns="http://www.w3.org/2000/svg">
<path opacity="0.9" d="M41.2903 11C41.2903 17.0806 37.1355 22 32 22C26.8645 22 22.7097 17.0806 22.7097 11C22.7097 4.91944 26.8645 0 32 0C37.1355 0 41.2903 4.91944 41.2903 11ZM54.7097 0C49.5742 0 45.4194 4.91944 45.4194 11C45.4194 17.0806 49.5742 22 54.7097 22C59.8452 22 64 17.0806 64 11C64 4.91944 59.8452 0 54.7097 0ZM9.29032 0C4.15484 0 0 4.91944 0 11C0 17.0806 4.15484 22 9.29032 22C14.4258 22 18.5806 17.0806 18.5806 11C18.5806 4.91944 14.4258 0 9.29032 0Z" fill="white"/>
</svg>
