<svg width="15" height="18" viewBox="0 0 15 18" fill="none" xmlns="http://www.w3.org/2000/svg">
<path d="M7.50167 4.58239C5.3734 4.58239 3.65672 6.52538 3.65672 8.93423C3.65672 11.3431 5.3734 13.2861 7.50167 13.2861C9.62995 13.2861 11.3466 11.3431 11.3466 8.93423C11.3466 6.52538 9.62995 4.58239 7.50167 4.58239ZM7.50167 11.7635C6.12633 11.7635 5.00195 10.4947 5.00195 8.93423C5.00195 7.37378 6.12298 6.10497 7.50167 6.10497C8.88037 6.10497 10.0014 7.37378 10.0014 8.93423C10.0014 10.4947 8.87702 11.7635 7.50167 11.7635ZM12.4007 4.40438C12.4007 4.96872 11.9992 5.41943 11.5039 5.41943C11.0053 5.41943 10.6071 4.96493 10.6071 4.40438C10.6071 3.84383 11.0086 3.38933 11.5039 3.38933C11.9992 3.38933 12.4007 3.84383 12.4007 4.40438ZM14.9473 5.43458C14.8904 4.07487 14.616 2.87044 13.7359 1.87812C12.8592 0.885791 11.795 0.575216 10.5937 0.507041C9.35555 0.427503 5.64445 0.427503 4.4063 0.507041C3.20831 0.571428 2.14417 0.882003 1.26408 1.87433C0.383993 2.86665 0.112939 4.07108 0.052705 5.43079C-0.0175683 6.83217 -0.0175683 11.0325 0.052705 12.4339C0.109593 13.7936 0.383993 14.998 1.26408 15.9903C2.14417 16.9827 3.20496 17.2932 4.4063 17.3614C5.64445 17.441 9.35555 17.441 10.5937 17.3614C11.795 17.297 12.8592 16.9865 13.7359 15.9903C14.6127 14.998 14.8871 13.7936 14.9473 12.4339C15.0176 11.0325 15.0176 6.83595 14.9473 5.43458ZM13.3477 13.9375C13.0867 14.6799 12.5814 15.2518 11.9222 15.551C10.935 15.9941 8.59258 15.8919 7.50167 15.8919C6.41076 15.8919 4.06497 15.9903 3.08115 15.551C2.42526 15.2556 1.91997 14.6837 1.65561 13.9375C1.26408 12.8202 1.35443 10.169 1.35443 8.93423C1.35443 7.6995 1.26743 5.04447 1.65561 3.93094C1.91662 3.18859 2.42192 2.61668 3.08115 2.31747C4.06832 1.87433 6.41076 1.97659 7.50167 1.97659C8.59258 1.97659 10.9384 1.87812 11.9222 2.31747C12.5781 2.61289 13.0834 3.1848 13.3477 3.93094C13.7393 5.04825 13.6489 7.6995 13.6489 8.93423C13.6489 10.169 13.7393 12.824 13.3477 13.9375Z" fill="#6A3332"/>
</svg>
