<svg width="38" height="21" viewBox="0 0 38 21" fill="none" xmlns="http://www.w3.org/2000/svg">
<path d="M31.0093 16.3161C30.6257 17.3468 29.8821 17.9973 29.1418 18.4056C29.4801 17.9154 29.7242 17.3934 29.8673 16.8544C29.8862 16.7844 29.8808 16.7121 29.8518 16.644C29.8227 16.5759 29.7709 16.5142 29.701 16.4644C29.6311 16.4147 29.5453 16.3785 29.4514 16.3591C29.3575 16.3398 29.2585 16.3378 29.1633 16.3535L29.1478 16.3561C29.0374 16.3741 28.9365 16.4151 28.8573 16.4741C28.7781 16.5332 28.724 16.6077 28.7015 16.6888C28.4347 17.652 27.8286 18.7376 26.4713 19.2334C26.993 18.6521 27.3317 17.9544 27.5197 17.2194C27.5367 17.1504 27.5304 17.0795 27.5012 17.0128C27.4721 16.9461 27.4211 16.8856 27.3526 16.8366C27.2841 16.7876 27.2002 16.7517 27.1083 16.7319C27.0165 16.7121 26.9193 16.709 26.8255 16.723L26.813 16.7248C26.6976 16.7418 26.5918 16.7837 26.5093 16.845C26.4267 16.9064 26.3711 16.9844 26.3496 17.069C26.1105 18.0015 25.5463 19.0859 24.2384 19.6157C24.4585 19.3986 24.6413 19.1625 24.7827 18.9129C25.0322 18.4577 25.1933 17.9792 25.2613 17.4913C25.2716 17.4253 25.2609 17.3583 25.2301 17.2958C25.1993 17.2332 25.1492 17.1767 25.0837 17.1306C25.0182 17.0844 24.939 17.05 24.8523 17.0299C24.7657 17.0097 24.6738 17.0045 24.5839 17.0145L24.5717 17.0158C24.4445 17.0299 24.327 17.0741 24.2375 17.1417C24.1479 17.2094 24.0913 17.2966 24.0763 17.3901C23.888 18.5787 23.3056 19.6031 21.5726 19.8718C21.9292 19.5918 22.2134 19.2669 22.4113 18.9127C22.624 18.5294 22.7709 18.1283 22.8485 17.7186C22.8618 17.6541 22.8549 17.5881 22.8282 17.5258C22.8015 17.4635 22.7559 17.4064 22.6946 17.3589C22.6334 17.3114 22.5582 17.2746 22.4747 17.2515C22.3912 17.2283 22.3016 17.2193 22.2127 17.2251L22.2005 17.2259C22.0676 17.2349 21.9427 17.2763 21.8459 17.3435C21.7491 17.4107 21.6861 17.4998 21.667 17.5964C21.4292 18.7668 20.7506 19.7371 18.8699 19.912C19.6264 19.4143 20.1467 18.7176 20.4039 17.8436C20.422 17.7803 20.4201 17.7147 20.3985 17.6519C20.377 17.5891 20.3362 17.5307 20.2793 17.4812C20.2223 17.4316 20.1508 17.392 20.07 17.3656C19.9891 17.3391 19.9012 17.3264 19.8127 17.3284H19.8006C19.668 17.3314 19.5406 17.3669 19.4388 17.4291C19.3371 17.4914 19.2669 17.5768 19.2395 17.6717C19.1359 18.0465 18.9478 18.4062 18.6828 18.7359C18.1715 19.3493 17.4065 19.7237 16.3615 19.8696C17.105 19.3187 17.5668 18.5591 17.8437 17.8415C17.8668 17.7803 17.8712 17.7162 17.8565 17.6536C17.8418 17.591 17.8083 17.5316 17.7585 17.4796C17.7087 17.4276 17.6438 17.3843 17.5684 17.3528C17.493 17.3213 17.409 17.3024 17.3225 17.2975L17.3106 17.2967C17.176 17.2888 17.0418 17.3154 16.9309 17.3718C16.8201 17.4282 16.7395 17.5111 16.7029 17.6061C16.4118 18.357 15.9045 19.1276 15.0928 19.5189C14.4379 19.8347 13.6594 19.8598 12.7183 19.5952C13.1998 19.5056 13.652 19.3468 14.0486 19.1279C14.76 18.7357 15.2251 18.1834 15.5039 17.6071C15.5315 17.5507 15.5424 17.4905 15.5359 17.4308C15.5293 17.371 15.5054 17.3129 15.4658 17.2604C15.4262 17.2079 15.3718 17.1621 15.3062 17.1261C15.2406 17.0901 15.1652 17.0648 15.0852 17.0517L15.0521 17.0463C14.9135 17.0243 14.7686 17.0403 14.6449 17.0912C14.5213 17.1422 14.4275 17.2245 14.3815 17.3226C14.174 17.7507 13.8381 18.158 13.3346 18.4357C12.7329 18.7675 11.9492 18.8874 10.9988 18.7958C11.5211 18.6534 11.9936 18.4278 12.3821 18.1354C12.7705 17.843 13.0652 17.4912 13.2448 17.1053C13.2941 17.0008 13.2859 16.8865 13.222 16.7864C13.1582 16.6863 13.0436 16.6083 12.9025 16.5688L12.8912 16.5656C12.8174 16.5446 12.7385 16.5347 12.6594 16.5365C12.5802 16.5383 12.5024 16.5518 12.4305 16.5761C12.3586 16.6004 12.2942 16.6351 12.2411 16.6781C12.1879 16.721 12.1472 16.7714 12.1214 16.8261C12.0113 17.058 11.8422 17.2725 11.6231 17.4585C11.031 17.955 10.0632 18.2064 8.74727 18.2064C8.59004 18.2064 8.43924 18.2521 8.32806 18.3334C8.21688 18.4147 8.15442 18.5249 8.15442 18.6399C8.15442 18.8793 12.4425 20.636 14.083 20.8073C18.2329 21.2408 22.3829 20.8073 22.3829 20.8073C23.3456 20.8073 28.5651 19.8013 29.8529 19.095C30.7042 18.6282 31.672 17.837 32.1541 16.5391C32.1795 16.4702 32.1811 16.3977 32.1585 16.3282C32.1359 16.2587 32.09 16.1944 32.0248 16.1412C31.9596 16.088 31.8773 16.0476 31.7853 16.0235C31.6933 15.9995 31.5946 15.9927 31.4981 16.0036L31.4851 16.0051C31.3733 16.018 31.2689 16.0541 31.1845 16.1093C31.1001 16.1645 31.0393 16.2363 31.0093 16.3161Z" fill="#E9BDAF"/>
<path d="M18.745 16.4727C14.7838 16.4727 12.086 15.4767 10.505 14.657C8.15452 13.4383 3.58583 9.8503 3.53314 9.7998C3.43943 9.70832 3.39893 9.59348 3.42044 9.48028C3.44195 9.36707 3.52373 9.26466 3.648 9.19532C3.77226 9.12599 3.92895 9.09534 4.08396 9.11005C4.23897 9.12476 4.37977 9.18364 4.47571 9.27388V9.27388C4.48786 9.28547 5.71329 10.4482 7.74834 11.5921C9.59812 12.6321 12.5206 13.8718 15.9381 13.8718C18.9694 13.8718 22.3702 13.2076 25.3706 12.6216C29.4517 11.8246 32.6751 11.1951 34.2411 12.2531C34.3218 12.3076 34.3801 12.3774 34.4097 12.4548L35.4041 15.0557C35.4388 15.1465 35.4321 15.2432 35.3848 15.331C35.3376 15.4188 35.2525 15.493 35.1423 15.5422C35.0322 15.5914 34.9032 15.613 34.7748 15.6037C34.6463 15.5944 34.5256 15.5547 34.4308 15.4907C33.3717 14.7751 31.5677 15.0709 28.8371 15.5187C26.2445 15.9436 23.0182 16.4727 18.745 16.4727Z" fill="#E9BDAF"/>
<path d="M34.6641 6.17453C34.4869 6.17467 34.3101 6.16336 34.1357 6.14072L34.1178 6.13817L13.9772 3.03439H3.1732C0.555752 3.03439 0.0623487 1.96623 0.00143289 1.32842C-0.00935937 1.21508 0.0411332 1.10318 0.142044 1.01679C0.242956 0.930398 0.386219 0.876427 0.541004 0.866491L14.0023 0.00169418C14.0542 -0.00168283 14.1066 -6.37138e-06 14.1579 0.00667938L36.3389 2.88039C36.5692 2.91022 36.7891 2.97294 36.9861 3.06498C37.1832 3.15701 37.3535 3.27655 37.4873 3.41675C37.621 3.55695 37.7157 3.71507 37.7659 3.88205C37.816 4.04903 37.8206 4.2216 37.7794 4.38989C37.642 4.9519 37.1505 5.46471 36.4311 5.7967C35.9022 6.04129 35.2899 6.17221 34.6641 6.17453Z" fill="#E9BDAF"/>
<path d="M9.8765 16.3472C9.20894 16.8511 8.05347 17.04 6.4415 16.9089C6.36102 16.9024 6.27956 16.908 6.20215 16.9253C6.12473 16.9427 6.053 16.9715 5.99138 17.0099C5.92975 17.0483 5.87954 17.0955 5.84384 17.1487C5.80814 17.2018 5.78771 17.2597 5.7838 17.3189C5.77957 17.4311 5.8337 17.5402 5.93527 17.6244C6.03685 17.7086 6.1783 17.7614 6.33108 17.7723C6.67509 17.8004 7.02093 17.8149 7.36709 17.8156C8.83752 17.8156 9.96535 17.5259 10.728 16.9506C10.9105 16.8128 11.0699 16.6596 11.203 16.4943C11.2423 16.4454 11.2678 16.3913 11.2782 16.3351C11.2886 16.279 11.2836 16.2218 11.2634 16.1671C11.2433 16.1123 11.2084 16.0611 11.1609 16.0163C11.1134 15.9715 11.0541 15.9341 10.9866 15.9062L10.976 15.9018C10.8403 15.8463 10.6801 15.832 10.5301 15.8621C10.3801 15.8921 10.2523 15.964 10.1741 16.0624C10.0903 16.1654 9.99046 16.261 9.8765 16.3472Z" fill="#E9BDAF"/>
<path d="M3.57369 13.2987C3.49579 13.2825 3.41418 13.2782 3.33391 13.286C3.25364 13.2938 3.17641 13.3135 3.10697 13.344C3.03753 13.3745 2.97737 13.415 2.93018 13.4631C2.883 13.5112 2.8498 13.5659 2.83262 13.6238C2.80326 13.7339 2.83207 13.8481 2.91324 13.9433C2.99441 14.0385 3.12192 14.1077 3.27008 14.1369C4.09622 14.3074 4.84267 14.3926 5.50943 14.3926C5.86774 14.3926 6.32617 14.3141 6.72145 14.2277C6.81257 14.208 6.89499 14.1711 6.9604 14.1207C7.02582 14.0703 7.07193 14.0082 7.09409 13.9407C7.11625 13.8731 7.11368 13.8025 7.08665 13.7359C7.05961 13.6692 7.00905 13.609 6.94007 13.5612L6.90798 13.539C6.83909 13.4923 6.75492 13.4592 6.66355 13.4431C6.57218 13.427 6.47667 13.4283 6.38619 13.4469C5.67929 13.5861 4.72131 13.5371 3.57369 13.2987Z" fill="#E9BDAF"/>
<path d="M7.97804 14.8569C7.30797 15.2342 6.18873 15.2938 4.74098 15.0291C4.66244 15.0147 4.58072 15.0123 4.50084 15.0219C4.42096 15.0315 4.34463 15.053 4.27654 15.085C4.20844 15.117 4.15004 15.1589 4.10493 15.208C4.05981 15.2572 4.02894 15.3126 4.01422 15.3708C3.98956 15.4817 4.02334 15.5953 4.10875 15.6887C4.19416 15.7821 4.32484 15.8483 4.47442 15.874C5.08944 15.9914 5.72162 16.0539 6.35718 16.0602C7.31426 16.0602 8.10424 15.8848 8.7174 15.5346C8.80052 15.4872 8.88008 15.4366 8.95573 15.3829C9.00447 15.3489 9.04281 15.3078 9.06825 15.2622C9.09369 15.2166 9.10563 15.1676 9.10331 15.1184C9.10099 15.0691 9.08444 15.0208 9.05477 14.9766C9.02509 14.9324 8.98295 14.8933 8.93113 14.8619L8.92201 14.8565C8.78934 14.7779 8.62393 14.7348 8.45319 14.7344C8.28246 14.7339 8.11665 14.7762 7.98323 14.8541L7.97804 14.8569Z" fill="#E9BDAF"/>
</svg>
