<svg width="15" height="18" viewBox="0 0 15 18" fill="none" xmlns="http://www.w3.org/2000/svg">
<path d="M14.5722 12.5732L11.2909 10.9819C11.1507 10.9143 10.995 10.9 10.847 10.9413C10.6991 10.9825 10.567 11.0771 10.4706 11.2106L9.01744 13.2197C6.73686 12.0029 4.90151 9.92606 3.82624 7.3454L5.60166 5.70104C5.71993 5.5922 5.80363 5.44271 5.84011 5.27522C5.87659 5.10773 5.86384 4.93134 5.80381 4.77278L4.39754 1.05972C4.33165 0.888788 4.21512 0.749229 4.06804 0.665107C3.92097 0.580984 3.75256 0.55757 3.59186 0.598902L0.544931 1.39456C0.389998 1.43504 0.251766 1.53376 0.152796 1.67459C0.0538267 1.81542 -3.56904e-05 1.99006 1.77431e-08 2.16999C1.77431e-08 10.6736 6.09093 17.5527 13.594 17.5527C13.753 17.5528 13.9074 17.4919 14.032 17.3799C14.1565 17.2679 14.2438 17.1114 14.2795 16.936L14.9827 13.4882C15.019 13.3055 14.9978 13.1141 14.9229 12.9471C14.848 12.7801 14.724 12.6479 14.5722 12.5732V12.5732Z" fill="#6A3332"/>
</svg>
